<svg width="300" height="120" viewBox="0 0 370 150" fill="none" xmlns="http://www.w3.org/2000/svg">
<path d="M38.85 75.85C39.35 75.85 39.6833 75.6167 39.85 75.15C40.05 74.65 40.15 74.0833 40.15 73.45C40.1833 72.8167 40.2 72.3 40.2 71.9V65.8C40.2 64.0667 40.45 62.6 40.95 61.4C41.4833 60.2 42.3 59.2667 43.4 58.6C44.5333 57.9333 45.9833 57.5333 47.75 57.4L48.15 60.45C46.9167 60.5833 45.9833 60.95 45.35 61.55C44.7167 62.1167 44.2833 62.8333 44.05 63.7C43.85 64.5667 43.75 65.5333 43.75 66.6V72.9C43.75 74.1 43.5167 75.0333 43.05 75.7C42.5833 76.3667 41.9667 76.8833 41.2 77.25C41.9667 77.5833 42.5833 78.1 43.05 78.8C43.5167 79.4667 43.75 80.3833 43.75 81.55V87.35C43.75 88.4167 43.85 89.3833 44.05 90.25C44.2833 91.1167 44.7167 91.8333 45.35 92.4C45.9833 92.9667 46.9167 93.3333 48.15 93.5L47.75 96.55C45.9833 96.4167 44.5333 96.0167 43.4 95.35C42.3 94.6833 41.4833 93.7333 40.95 92.5C40.45 91.3 40.2 89.85 40.2 88.15V82.55C40.2 82.1167 40.1833 81.6 40.15 81C40.15 80.3667 40.05 79.8167 39.85 79.35C39.6833 78.85 39.35 78.6 38.85 78.6H35.25V75.85H38.85ZM139.998 64.4C139.665 64.2 139.215 64.0167 138.648 63.85C138.115 63.65 137.465 63.5 136.698 63.4C135.965 63.2667 135.115 63.2 134.148 63.2C130.915 63.2 128.448 64.2833 126.748 66.45C125.048 68.5833 124.198 71.5167 124.198 75.25C124.198 79.05 125.065 82.0167 126.798 84.15C128.565 86.2833 131.015 87.35 134.148 87.35C134.981 87.35 135.765 87.3 136.498 87.2C137.231 87.0667 137.898 86.9167 138.498 86.75C139.098 86.5833 139.598 86.4333 139.998 86.3L140.948 82.3L144.348 83.1L143.098 88.9C143.098 88.9 142.731 89.0667 141.998 89.4C141.265 89.7 140.215 90 138.848 90.3C137.515 90.6 135.948 90.75 134.148 90.75C131.281 90.75 128.781 90.1167 126.648 88.85C124.548 87.5833 122.915 85.8 121.748 83.5C120.581 81.1667 119.981 78.4167 119.948 75.25C119.948 72.1167 120.515 69.4 121.648 67.1C122.815 64.7667 124.465 62.9667 126.598 61.7C128.731 60.4 131.231 59.7667 134.098 59.8C136.298 59.8 138.065 60 139.398 60.4C140.765 60.7667 141.748 61.15 142.348 61.55C142.981 61.9167 143.298 62.1167 143.298 62.15L144.398 67.95L140.998 68.7L139.998 64.4ZM204.294 84.55C205.127 84.55 205.844 84.8667 206.444 85.5C207.077 86.1 207.394 86.8167 207.394 87.65C207.394 88.4833 207.077 89.2167 206.444 89.85C205.844 90.45 205.127 90.75 204.294 90.75C203.461 90.75 202.727 90.45 202.094 89.85C201.494 89.2167 201.194 88.4833 201.194 87.65C201.194 86.8167 201.494 86.1 202.094 85.5C202.727 84.8667 203.461 84.55 204.294 84.55ZM229.978 60.55C234.745 60.55 238.461 61.9 241.128 64.6C243.795 67.2667 245.128 70.9833 245.128 75.75C245.128 80.2167 243.828 83.7167 241.228 86.25C238.628 88.75 235.011 90 230.378 90H216.678V86.55H221.428V64H216.678V60.55H229.978ZM229.478 86.55C233.245 86.55 236.078 85.6333 237.978 83.8C239.911 81.9667 240.878 79.2833 240.878 75.75C240.878 71.8833 239.945 68.9667 238.078 67C236.245 65 233.545 64 229.978 64H225.428V86.55H229.478ZM253.222 60.55H275.422L277.972 68.25L274.722 69.35L272.722 64H262.022V73.05H271.372V76.5H262.022L261.972 86.55H273.722L275.722 81.2L278.972 82.3L276.422 90H253.172V86.55H257.972L258.022 64H253.222V60.55ZM285.868 60.55H298.118V64H294.918L300.068 77.7L302.718 85.55L305.068 78.1L310.018 64H306.818V60.55H318.468V64H313.768L304.918 90H300.418L290.618 64H285.868V60.55ZM332.726 78.6C332.226 78.6 331.876 78.85 331.676 79.35C331.509 79.8167 331.409 80.3667 331.376 81C331.376 81.6 331.376 82.1167 331.376 82.55V88.15C331.376 89.85 331.109 91.3 330.576 92.5C330.076 93.7333 329.276 94.6833 328.176 95.35C327.076 96.0167 325.626 96.4167 323.826 96.55L323.376 93.5C324.642 93.3333 325.592 92.9667 326.226 92.4C326.859 91.8333 327.276 91.1167 327.476 90.25C327.709 89.3833 327.826 88.4167 327.826 87.35V81.55C327.826 80.3833 328.059 79.4667 328.526 78.8C328.992 78.1 329.609 77.5833 330.376 77.25C329.609 76.8833 328.992 76.3667 328.526 75.7C328.059 75.0333 327.826 74.1 327.826 72.9V66.6C327.826 65.5333 327.709 64.5667 327.476 63.7C327.276 62.8333 326.859 62.1167 326.226 61.55C325.592 60.95 324.642 60.5833 323.376 60.45L323.826 57.4C325.626 57.5333 327.076 57.9333 328.176 58.6C329.276 59.2667 330.076 60.2 330.576 61.4C331.109 62.6 331.376 64.0667 331.376 65.8V71.9C331.376 72.3 331.376 72.8167 331.376 73.45C331.409 74.0833 331.509 74.65 331.676 75.15C331.876 75.6167 332.226 75.85 332.726 75.85H336.326V78.6H332.726Z" fill="#012A4A"/>
<path d="M72.5152 78.2C72.5152 80.8667 72.0986 83.1333 71.2652 85C70.4652 86.8667 69.2986 88.2833 67.7652 89.25C66.2652 90.2167 64.4486 90.7 62.3152 90.7C61.2819 90.7 60.1819 90.5833 59.0152 90.35C57.8486 90.1167 56.6319 89.75 55.3652 89.25L54.1152 82.95L57.5152 82.15L58.5652 86.6C59.2986 86.9 59.9819 87.1167 60.6152 87.25C61.2819 87.3833 61.8819 87.45 62.4152 87.45C64.2819 87.45 65.7486 86.7167 66.8152 85.25C67.9152 83.75 68.4652 81.5333 68.4652 78.6L68.5152 64H61.9152V60.55H77.2152V64H72.5152V78.2ZM80.6797 90V86.55H85.4797L93.7797 64H88.7297V60.55H98.4297L107.48 86.55H112.23V90H100.08V86.55H103.23L101.63 82H90.8297L89.1297 86.55H92.3297V90H80.6797ZM92.0797 78.55H100.43L96.4797 65.6L92.0797 78.55Z" fill="#DD4747"/>
<path d="M153.508 60.55H164.558L172.958 82L181.258 60.55H191.908V64H187.208V86.55H191.908V90H180.008V86.55H183.208V64L180.958 70.5L174.858 86.45H170.558L164.158 70.4L161.858 64L161.708 86.55H165.008V90H153.308V86.55H158.108L158.158 64H153.508V60.55Z" fill="#468F28"/>
</svg>
